<svg width="116" height="51" viewBox="0 0 116 51" fill="none" xmlns="http://www.w3.org/2000/svg">
<path d="M17.424 31V19.64H22.224C22.7147 19.64 23.1627 19.7413 23.568 19.944C23.984 20.1467 24.3413 20.424 24.64 20.776C24.9387 21.1173 25.168 21.5013 25.328 21.928C25.4987 22.344 25.584 22.7707 25.584 23.208C25.584 23.7627 25.4773 24.28 25.264 24.76C25.0613 25.24 24.768 25.6453 24.384 25.976C24 26.3067 23.5573 26.52 23.056 26.616L25.84 31H24.576L21.904 26.808H18.544V31H17.424ZM18.544 25.816H22.256C22.704 25.816 23.0933 25.6933 23.424 25.448C23.7547 25.192 24.0107 24.8667 24.192 24.472C24.3733 24.0773 24.464 23.656 24.464 23.208C24.464 22.7493 24.3573 22.328 24.144 21.944C23.9413 21.5493 23.664 21.2347 23.312 21C22.96 20.7547 22.576 20.632 22.16 20.632H18.544V25.816ZM31.0031 31.16C30.2031 31.16 29.4885 30.9627 28.8591 30.568C28.2298 30.1733 27.7338 29.6453 27.3711 28.984C27.0085 28.3227 26.8271 27.5973 26.8271 26.808C26.8271 26.0293 27.0031 25.3147 27.3551 24.664C27.7178 24.0133 28.2138 23.496 28.8431 23.112C29.4725 22.7173 30.1871 22.52 30.9871 22.52C31.8085 22.52 32.5285 22.7173 33.1471 23.112C33.7658 23.5067 34.2458 24.0293 34.5871 24.68C34.9391 25.32 35.1151 26.024 35.1151 26.792C35.1151 26.9627 35.1098 27.1067 35.0991 27.224H27.9631C28.0165 27.8213 28.1871 28.3547 28.4751 28.824C28.7631 29.2827 29.1311 29.6507 29.5791 29.928C30.0271 30.1947 30.5178 30.328 31.0511 30.328C31.5951 30.328 32.1071 30.1893 32.5871 29.912C33.0671 29.6347 33.4085 29.272 33.6111 28.824L34.5551 29.08C34.3845 29.4853 34.1178 29.848 33.7551 30.168C33.4031 30.4773 32.9925 30.7227 32.5231 30.904C32.0538 31.0747 31.5471 31.16 31.0031 31.16ZM27.9311 26.44H34.0911C34.0485 25.8427 33.8831 25.3147 33.5951 24.856C33.3071 24.3867 32.9391 24.024 32.4911 23.768C32.0431 23.5013 31.5471 23.368 31.0031 23.368C30.4591 23.368 29.9631 23.5013 29.5151 23.768C29.0671 24.024 28.6991 24.3867 28.4111 24.856C28.1338 25.3147 27.9738 25.8427 27.9311 26.44ZM41.0498 31.16C40.3564 31.16 39.7324 30.9787 39.1778 30.616C38.6338 30.2533 38.2018 29.8053 37.8818 29.272V34.408H36.7938V22.664H37.7698V24.28C38.1004 23.7573 38.5378 23.336 39.0818 23.016C39.6364 22.6853 40.2338 22.52 40.8738 22.52C41.4498 22.52 41.9778 22.6427 42.4578 22.888C42.9378 23.1227 43.3538 23.4427 43.7058 23.848C44.0684 24.2533 44.3458 24.7173 44.5378 25.24C44.7298 25.752 44.8258 26.2853 44.8258 26.84C44.8258 27.6187 44.6658 28.3387 44.3458 29C44.0364 29.6507 43.5938 30.1733 43.0178 30.568C42.4524 30.9627 41.7964 31.16 41.0498 31.16ZM40.7458 30.2C41.3538 30.2 41.8764 30.04 42.3138 29.72C42.7618 29.3893 43.1084 28.968 43.3538 28.456C43.5991 27.944 43.7218 27.4053 43.7218 26.84C43.7218 26.2427 43.5831 25.688 43.3058 25.176C43.0284 24.664 42.6551 24.2533 42.1858 23.944C41.7271 23.6347 41.2044 23.48 40.6178 23.48C40.2551 23.48 39.8711 23.576 39.4658 23.768C39.0711 23.9493 38.7191 24.2 38.4098 24.52C38.1111 24.8293 37.9351 25.1707 37.8818 25.544V28.104C38.1271 28.6907 38.5111 29.1867 39.0338 29.592C39.5564 29.9973 40.1271 30.2 40.7458 30.2ZM50.2208 31.16C49.4208 31.16 48.7061 30.9627 48.0768 30.568C47.4581 30.1733 46.9728 29.6507 46.6208 29C46.2688 28.3387 46.0928 27.624 46.0928 26.856C46.0928 26.0773 46.2688 25.3627 46.6208 24.712C46.9834 24.0507 47.4741 23.5227 48.0928 23.128C48.7221 22.7227 49.4314 22.52 50.2208 22.52C51.0208 22.52 51.7301 22.7227 52.3488 23.128C52.9781 23.5227 53.4688 24.0507 53.8208 24.712C54.1834 25.3627 54.3648 26.0773 54.3648 26.856C54.3648 27.624 54.1888 28.3387 53.8368 29C53.4848 29.6507 52.9941 30.1733 52.3648 30.568C51.7461 30.9627 51.0314 31.16 50.2208 31.16ZM47.1968 26.872C47.1968 27.4907 47.3301 28.056 47.5968 28.568C47.8741 29.0693 48.2421 29.4693 48.7008 29.768C49.1594 30.056 49.6661 30.2 50.2208 30.2C50.7754 30.2 51.2821 30.0507 51.7408 29.752C52.1994 29.4533 52.5674 29.048 52.8448 28.536C53.1221 28.024 53.2608 27.4587 53.2608 26.84C53.2608 26.2213 53.1221 25.656 52.8448 25.144C52.5674 24.632 52.1994 24.2267 51.7408 23.928C51.2821 23.6293 50.7754 23.48 50.2208 23.48C49.6768 23.48 49.1754 23.6347 48.7168 23.944C48.2581 24.2427 47.8901 24.648 47.6128 25.16C47.3354 25.672 47.1968 26.2427 47.1968 26.872ZM58.9204 31.16C58.2377 31.16 57.603 31.048 57.0164 30.824C56.4404 30.5893 55.9337 30.248 55.4964 29.8L55.9444 29.032C56.4137 29.4693 56.883 29.7893 57.3524 29.992C57.8324 30.184 58.339 30.28 58.8724 30.28C59.5124 30.28 60.035 30.152 60.4404 29.896C60.8564 29.6293 61.0644 29.2507 61.0644 28.76C61.0644 28.4293 60.963 28.1787 60.7604 28.008C60.5684 27.8267 60.2857 27.6827 59.9124 27.576C59.5497 27.4693 59.1124 27.3467 58.6004 27.208C58.0244 27.048 57.539 26.8827 57.1444 26.712C56.7604 26.5307 56.467 26.3067 56.2644 26.04C56.0724 25.7627 55.9764 25.4053 55.9764 24.968C55.9764 24.4347 56.1097 23.9867 56.3764 23.624C56.6537 23.2613 57.027 22.9893 57.4964 22.808C57.9764 22.616 58.5097 22.52 59.0964 22.52C59.7364 22.52 60.3017 22.6213 60.7924 22.824C61.283 23.0267 61.683 23.3093 61.9924 23.672L61.4644 24.408C61.1764 24.0667 60.819 23.816 60.3924 23.656C59.9764 23.4853 59.523 23.4 59.0324 23.4C58.691 23.4 58.3657 23.448 58.0564 23.544C57.747 23.6293 57.491 23.7787 57.2884 23.992C57.0964 24.1947 57.0004 24.4773 57.0004 24.84C57.0004 25.288 57.1657 25.5973 57.4964 25.768C57.827 25.9387 58.3284 26.12 59.0004 26.312C59.6297 26.4827 60.179 26.6533 60.6484 26.824C61.1177 26.9947 61.4804 27.224 61.7364 27.512C61.9924 27.7893 62.1204 28.1787 62.1204 28.68C62.1204 29.4587 61.827 30.0667 61.2404 30.504C60.6537 30.9413 59.8804 31.16 58.9204 31.16ZM63.9188 20.92V19.32H65.0068V20.92H63.9188ZM63.9188 31V22.664H65.0068V31H63.9188ZM71.4031 30.6C71.2751 30.6533 71.0405 30.7493 70.6991 30.888C70.3578 31.0267 69.9631 31.096 69.5151 31.096C69.0458 31.096 68.6351 30.9627 68.2831 30.696C67.9311 30.4293 67.7551 30.0293 67.7551 29.496V23.528H66.6031V22.664H67.7551V19.848H68.8431V22.664H70.7631V23.528H68.8431V29.192C68.8645 29.5013 68.9711 29.7307 69.1631 29.88C69.3658 30.0187 69.5951 30.088 69.8511 30.088C70.1498 30.088 70.4165 30.04 70.6511 29.944C70.8965 29.8373 71.0511 29.7627 71.1151 29.72L71.4031 30.6ZM76.1739 31.16C75.3739 31.16 74.6592 30.9627 74.0299 30.568C73.4112 30.1733 72.9259 29.6507 72.5739 29C72.2219 28.3387 72.0459 27.624 72.0459 26.856C72.0459 26.0773 72.2219 25.3627 72.5739 24.712C72.9365 24.0507 73.4272 23.5227 74.0459 23.128C74.6752 22.7227 75.3845 22.52 76.1739 22.52C76.9739 22.52 77.6832 22.7227 78.3019 23.128C78.9312 23.5227 79.4219 24.0507 79.7739 24.712C80.1365 25.3627 80.3179 26.0773 80.3179 26.856C80.3179 27.624 80.1419 28.3387 79.7899 29C79.4379 29.6507 78.9472 30.1733 78.3179 30.568C77.6992 30.9627 76.9845 31.16 76.1739 31.16ZM73.1499 26.872C73.1499 27.4907 73.2832 28.056 73.5499 28.568C73.8272 29.0693 74.1952 29.4693 74.6539 29.768C75.1125 30.056 75.6192 30.2 76.1739 30.2C76.7285 30.2 77.2352 30.0507 77.6939 29.752C78.1525 29.4533 78.5205 29.048 78.7979 28.536C79.0752 28.024 79.2139 27.4587 79.2139 26.84C79.2139 26.2213 79.0752 25.656 78.7979 25.144C78.5205 24.632 78.1525 24.2267 77.6939 23.928C77.2352 23.6293 76.7285 23.48 76.1739 23.48C75.6299 23.48 75.1285 23.6347 74.6699 23.944C74.2112 24.2427 73.8432 24.648 73.5659 25.16C73.2885 25.672 73.1499 26.2427 73.1499 26.872ZM76.5579 21.08L75.8379 20.808L76.7819 19.32H77.9339L76.5579 21.08ZM86.2975 23.624C85.5722 23.6453 84.9322 23.848 84.3775 24.232C83.8335 24.616 83.4495 25.144 83.2255 25.816V31H82.1375V22.664H83.1615V24.664C83.4495 24.0773 83.8282 23.6027 84.2975 23.24C84.7775 22.8773 85.2842 22.6747 85.8175 22.632C85.9242 22.6213 86.0148 22.616 86.0895 22.616C86.1642 22.616 86.2335 22.6213 86.2975 22.632V23.624ZM87.7469 20.92V19.32H88.8349V20.92H87.7469ZM87.7469 31V22.664H88.8349V31H87.7469ZM94.7833 31.16C93.9833 31.16 93.2686 30.9627 92.6393 30.568C92.0206 30.1733 91.5353 29.6507 91.1833 29C90.8313 28.3387 90.6553 27.624 90.6553 26.856C90.6553 26.0773 90.8313 25.3627 91.1833 24.712C91.5459 24.0507 92.0366 23.5227 92.6553 23.128C93.2846 22.7227 93.9939 22.52 94.7833 22.52C95.5833 22.52 96.2926 22.7227 96.9113 23.128C97.5406 23.5227 98.0313 24.0507 98.3833 24.712C98.7459 25.3627 98.9273 26.0773 98.9273 26.856C98.9273 27.624 98.7513 28.3387 98.3993 29C98.0473 29.6507 97.5566 30.1733 96.9273 30.568C96.3086 30.9627 95.5939 31.16 94.7833 31.16ZM91.7593 26.872C91.7593 27.4907 91.8926 28.056 92.1593 28.568C92.4366 29.0693 92.8046 29.4693 93.2633 29.768C93.7219 30.056 94.2286 30.2 94.7833 30.2C95.3379 30.2 95.8446 30.0507 96.3033 29.752C96.7619 29.4533 97.1299 29.048 97.4073 28.536C97.6846 28.024 97.8233 27.4587 97.8233 26.84C97.8233 26.2213 97.6846 25.656 97.4073 25.144C97.1299 24.632 96.7619 24.2267 96.3033 23.928C95.8446 23.6293 95.3379 23.48 94.7833 23.48C94.2393 23.48 93.7379 23.6347 93.2793 23.944C92.8206 24.2427 92.4526 24.648 92.1753 25.16C91.8979 25.672 91.7593 26.2427 91.7593 26.872Z" fill="#2A7AE4"/>
<rect x="0.5" y="0.5" width="115" height="50" stroke="#2A7AE4"/>
</svg>
