<svg width="105" height="51" viewBox="0 0 105 51" fill="none" xmlns="http://www.w3.org/2000/svg">
<rect width="105" height="51" fill="#2A7AE4"/>
<path d="M17.376 19.64L21.44 29.608L25.488 19.64H26.656L21.952 31H20.928L16.208 19.64H17.376ZM30.5813 31.16C29.7813 31.16 29.0666 30.9627 28.4373 30.568C27.8079 30.1733 27.3119 29.6453 26.9493 28.984C26.5866 28.3227 26.4053 27.5973 26.4053 26.808C26.4053 26.0293 26.5813 25.3147 26.9333 24.664C27.2959 24.0133 27.7919 23.496 28.4213 23.112C29.0506 22.7173 29.7653 22.52 30.5653 22.52C31.3866 22.52 32.1066 22.7173 32.7253 23.112C33.3439 23.5067 33.8239 24.0293 34.1653 24.68C34.5173 25.32 34.6933 26.024 34.6933 26.792C34.6933 26.9627 34.6879 27.1067 34.6773 27.224H27.5413C27.5946 27.8213 27.7653 28.3547 28.0533 28.824C28.3413 29.2827 28.7093 29.6507 29.1573 29.928C29.6053 30.1947 30.0959 30.328 30.6293 30.328C31.1733 30.328 31.6853 30.1893 32.1653 29.912C32.6453 29.6347 32.9866 29.272 33.1893 28.824L34.1333 29.08C33.9626 29.4853 33.6959 29.848 33.3333 30.168C32.9813 30.4773 32.5706 30.7227 32.1013 30.904C31.6319 31.0747 31.1253 31.16 30.5813 31.16ZM27.5093 26.44H33.6693C33.6266 25.8427 33.4613 25.3147 33.1733 24.856C32.8853 24.3867 32.5173 24.024 32.0693 23.768C31.6213 23.5013 31.1253 23.368 30.5813 23.368C30.0373 23.368 29.5413 23.5013 29.0933 23.768C28.6453 24.024 28.2773 24.3867 27.9893 24.856C27.7119 25.3147 27.5519 25.8427 27.5093 26.44ZM40.5319 23.624C39.8065 23.6453 39.1665 23.848 38.6119 24.232C38.0679 24.616 37.6839 25.144 37.4599 25.816V31H36.3719V22.664H37.3959V24.664C37.6839 24.0773 38.0625 23.6027 38.5319 23.24C39.0119 22.8773 39.5185 22.6747 40.0519 22.632C40.1585 22.6213 40.2492 22.616 40.3239 22.616C40.3985 22.616 40.4679 22.6213 40.5319 22.632V23.624ZM45.1244 26.856C45.1244 26.0667 45.2844 25.3467 45.6044 24.696C45.935 24.0347 46.3884 23.5067 46.9644 23.112C47.5404 22.7173 48.1964 22.52 48.9324 22.52C49.6257 22.52 50.2444 22.7067 50.7884 23.08C51.343 23.4427 51.775 23.8853 52.0844 24.408V19.32H53.1724V29.688C53.1724 29.976 53.3004 30.1253 53.5564 30.136V31C53.343 31.032 53.1777 31.0427 53.0604 31.032C52.8257 31.0213 52.623 30.936 52.4524 30.776C52.2924 30.6053 52.2124 30.4133 52.2124 30.2V29.384C51.8817 29.928 51.4337 30.36 50.8684 30.68C50.303 31 49.7164 31.16 49.1084 31.16C48.5324 31.16 47.999 31.0427 47.5084 30.808C47.0177 30.5733 46.591 30.2533 46.2284 29.848C45.8764 29.4427 45.6044 28.984 45.4124 28.472C45.2204 27.9493 45.1244 27.4107 45.1244 26.856ZM52.0844 28.136V25.56C51.9457 25.176 51.7217 24.8293 51.4124 24.52C51.103 24.2 50.751 23.9493 50.3564 23.768C49.9724 23.576 49.5884 23.48 49.2044 23.48C48.607 23.48 48.0844 23.6453 47.6364 23.976C47.199 24.296 46.8577 24.7173 46.6124 25.24C46.367 25.752 46.2444 26.2907 46.2444 26.856C46.2444 27.4533 46.3777 28.008 46.6444 28.52C46.9217 29.032 47.295 29.4427 47.7644 29.752C48.2337 30.0507 48.7617 30.2 49.3484 30.2C49.711 30.2 50.0897 30.1093 50.4844 29.928C50.8897 29.736 51.2417 29.4853 51.5404 29.176C51.8497 28.8667 52.031 28.52 52.0844 28.136ZM59.2375 31.16C58.4375 31.16 57.7228 30.9627 57.0935 30.568C56.4642 30.1733 55.9682 29.6453 55.6055 28.984C55.2428 28.3227 55.0615 27.5973 55.0615 26.808C55.0615 26.0293 55.2375 25.3147 55.5895 24.664C55.9522 24.0133 56.4482 23.496 57.0775 23.112C57.7068 22.7173 58.4215 22.52 59.2215 22.52C60.0428 22.52 60.7628 22.7173 61.3815 23.112C62.0002 23.5067 62.4802 24.0293 62.8215 24.68C63.1735 25.32 63.3495 26.024 63.3495 26.792C63.3495 26.9627 63.3442 27.1067 63.3335 27.224H56.1975C56.2508 27.8213 56.4215 28.3547 56.7095 28.824C56.9975 29.2827 57.3655 29.6507 57.8135 29.928C58.2615 30.1947 58.7522 30.328 59.2855 30.328C59.8295 30.328 60.3415 30.1893 60.8215 29.912C61.3015 29.6347 61.6428 29.272 61.8455 28.824L62.7895 29.08C62.6188 29.4853 62.3522 29.848 61.9895 30.168C61.6375 30.4773 61.2268 30.7227 60.7575 30.904C60.2882 31.0747 59.7815 31.16 59.2375 31.16ZM56.1655 26.44H62.3255C62.2828 25.8427 62.1175 25.3147 61.8295 24.856C61.5415 24.3867 61.1735 24.024 60.7255 23.768C60.2775 23.5013 59.7815 23.368 59.2375 23.368C58.6935 23.368 58.1975 23.5013 57.7495 23.768C57.3015 24.024 56.9335 24.3867 56.6455 24.856C56.3682 25.3147 56.2082 25.8427 56.1655 26.44ZM77.4281 31H76.3401V26.344C76.3401 25.384 76.1855 24.6747 75.8761 24.216C75.5668 23.7467 75.1081 23.512 74.5001 23.512C73.8601 23.512 73.2948 23.736 72.8041 24.184C72.3135 24.632 71.9668 25.208 71.7641 25.912V31H70.6761V26.344C70.6761 25.3627 70.5215 24.648 70.2121 24.2C69.9135 23.7413 69.4601 23.512 68.8521 23.512C68.2228 23.512 67.6575 23.7307 67.1561 24.168C66.6655 24.6053 66.3188 25.1813 66.1161 25.896V31H65.0281V22.664H66.0201V24.552C66.3615 23.912 66.8095 23.416 67.3641 23.064C67.9188 22.7013 68.5321 22.52 69.2041 22.52C69.8975 22.52 70.4575 22.7227 70.8841 23.128C71.3108 23.5227 71.5721 24.0347 71.6681 24.664C72.4361 23.2347 73.5081 22.52 74.8841 22.52C75.8228 22.52 76.4788 22.8507 76.8521 23.512C77.2361 24.1627 77.4281 25.032 77.4281 26.12V31ZM83.2833 31.16C82.4833 31.16 81.7686 30.9627 81.1393 30.568C80.5206 30.1733 80.0353 29.6507 79.6833 29C79.3313 28.3387 79.1553 27.624 79.1553 26.856C79.1553 26.0773 79.3313 25.3627 79.6833 24.712C80.0459 24.0507 80.5366 23.5227 81.1553 23.128C81.7846 22.7227 82.4939 22.52 83.2833 22.52C84.0833 22.52 84.7926 22.7227 85.4113 23.128C86.0406 23.5227 86.5313 24.0507 86.8833 24.712C87.2459 25.3627 87.4273 26.0773 87.4273 26.856C87.4273 27.624 87.2513 28.3387 86.8993 29C86.5473 29.6507 86.0566 30.1733 85.4273 30.568C84.8086 30.9627 84.0939 31.16 83.2833 31.16ZM80.2593 26.872C80.2593 27.4907 80.3926 28.056 80.6593 28.568C80.9366 29.0693 81.3046 29.4693 81.7633 29.768C82.2219 30.056 82.7286 30.2 83.2833 30.2C83.8379 30.2 84.3446 30.0507 84.8033 29.752C85.2619 29.4533 85.6299 29.048 85.9073 28.536C86.1846 28.024 86.3233 27.4587 86.3233 26.84C86.3233 26.2213 86.1846 25.656 85.9073 25.144C85.6299 24.632 85.2619 24.2267 84.8033 23.928C84.3446 23.6293 83.8379 23.48 83.2833 23.48C82.7393 23.48 82.2379 23.6347 81.7793 23.944C81.3206 24.2427 80.9526 24.648 80.6753 25.16C80.3979 25.672 80.2593 26.2427 80.2593 26.872Z" fill="white"/>
</svg>
